<svg width="41" height="42" viewBox="0 0 41 42" fill="none" xmlns="http://www.w3.org/2000/svg">
<path d="M20.5 3.72851C25.9737 3.72851 26.622 3.74952 28.7836 3.84894C30.7824 3.94109 31.8679 4.27815 32.5904 4.56154C33.5471 4.93691 34.23 5.38535 34.9474 6.10943C35.6649 6.8335 36.109 7.52281 36.4809 8.48856C36.7616 9.21781 37.0956 10.3135 37.1868 12.3309C37.2853 14.513 37.3062 15.1674 37.3062 20.6924C37.3062 26.2176 37.2853 26.872 37.1868 29.0539C37.0956 31.0714 36.7616 32.167 36.4809 32.8962C36.109 33.862 35.6647 34.5514 34.9474 35.2755C34.23 35.9996 33.5471 36.448 32.5904 36.8232C31.8679 37.1066 30.7824 37.4438 28.7836 37.5358C26.6223 37.6354 25.974 37.6564 20.5 37.6564C15.0259 37.6564 14.3775 37.6354 12.2162 37.5358C10.2175 37.4437 9.13211 37.1066 8.40964 36.8232C7.45287 36.448 6.7698 35.9996 6.05246 35.2755C5.33512 34.5513 4.89085 33.862 4.51913 32.8962C4.23837 32.1671 3.90429 31.0714 3.81316 29.0539C3.7145 26.872 3.69368 26.2176 3.69368 20.6924C3.69368 15.1674 3.7145 14.513 3.81316 12.331C3.90445 10.3135 4.23837 9.21781 4.51913 8.48856C4.89085 7.52281 5.33512 6.8335 6.05246 6.10943C6.76996 5.38519 7.45287 4.93691 8.40964 4.56154C9.13195 4.27815 10.2175 3.94109 12.2162 3.84894C14.3779 3.74952 15.0262 3.72851 20.5 3.72851ZM20.5 0C14.9325 0 14.2344 0.0237639 12.0479 0.124478C9.86578 0.22503 8.37553 0.57486 7.0717 1.08635C5.7235 1.61514 4.58031 2.32272 3.44064 3.47309C2.30096 4.62345 1.60012 5.77738 1.07625 7.13806C0.569355 8.45429 0.222937 9.95853 0.12332 12.161C0.023543 14.3679 0 15.0726 0 20.6924C0 26.3121 0.023543 27.0168 0.12332 29.2238C0.222937 31.4264 0.569355 32.9306 1.07625 34.2467C1.59996 35.6074 2.30096 36.7615 3.44064 37.9118C4.58031 39.0622 5.7235 39.7696 7.0717 40.2984C8.37569 40.8101 9.86578 41.1597 12.0478 41.2603C14.2344 41.361 14.9325 41.3848 20.5 41.3848C26.0675 41.3848 26.7656 41.361 28.9521 41.2603C31.1341 41.1597 32.6243 40.8101 33.9281 40.2984C35.2763 39.7698 36.4195 39.0622 37.5592 37.9118C38.6989 36.7615 39.3999 35.6075 39.9237 34.2467C40.4305 32.9305 40.7771 31.4264 40.8767 29.2239C40.9765 27.0168 41 26.3121 41 20.6924C41 15.0726 40.9765 14.3679 40.8767 12.161C40.7771 9.95853 40.4305 8.45429 39.9237 7.13823C39.3999 5.77738 38.6989 4.62345 37.5592 3.47309C36.4195 2.32272 35.2763 1.61498 33.9283 1.08635C32.6243 0.57486 31.1341 0.22503 28.9521 0.124478C26.7656 0.0237639 26.0675 0 20.5 0ZM20.5 10.0665C14.686 10.0665 9.97293 14.8242 9.97293 20.6924C9.97293 26.5609 14.686 31.3182 20.5 31.3182C26.3138 31.3182 31.0271 26.5609 31.0271 20.6924C31.0271 14.824 26.3138 10.0665 20.5 10.0665ZM20.5 27.5899C16.7261 27.5899 13.6666 24.5017 13.6666 20.6924C13.6666 16.883 16.7261 13.7949 20.5 13.7949C24.2739 13.7949 27.3334 16.883 27.3334 20.6924C27.3334 24.5017 24.2739 27.5899 20.5 27.5899ZM33.9028 9.64669C33.9028 11.0182 32.8016 12.1298 31.4428 12.1298C30.0842 12.1298 28.9828 11.0182 28.9828 9.64669C28.9828 8.27534 30.0842 7.16361 31.4428 7.16361C32.8016 7.16361 33.9028 8.27534 33.9028 9.64669Z" fill="#0449B0"/>
</svg>
