<?xml version="1.0" encoding="utf-8"?>
<!-- Generator: Adobe Illustrator 25.1.0, SVG Export Plug-In . SVG Version: 6.00 Build 0)  -->
<svg version="1.1" id="Layer_1" xmlns="http://www.w3.org/2000/svg" xmlns:xlink="http://www.w3.org/1999/xlink" x="0px" y="0px"
	 viewBox="0 0 350 148" style="enable-background:new 0 0 350 148;" xml:space="preserve">
<style type="text/css">
	.st0{fill-rule:evenodd;clip-rule:evenodd;fill:#FFFFFF;stroke:#FFFFFF;stroke-width:4;}
</style>
<path class="st0" d="M76.8,69c0,13.4-3.1,24.1-9.2,32.3c-6.1,8.2-14.4,12.3-24.9,12.3c-8.6,0-15.7-2.2-21.4-6.6
	c-1.4-1.1-3.8-0.2-3.8,1.7v35.1c0,1.1-0.9,2-2,2h-11c-1.1,0-2-0.9-2-2V26.1c0-1.1,0.9-2,2-2h9.9c1,0,1.9,0.8,2,1.9l0.2,2.9
	c0.1,1.8,2.5,2.6,3.8,1.4c5.7-5.1,13.1-7.7,22-7.7c10.6,0,18.9,4,25,11.9c6.2,8,9.3,19,9.3,33.2V69z M61.8,67.3
	c0-9.9-2.1-17.7-6.3-23.5c-4.2-5.7-10-8.6-17.4-8.6c-8.9,0-15.7,3.9-20.2,11.6c-0.2,0.3-0.3,0.6-0.3,1v40.9c0,0.3,0.1,0.7,0.3,1
	c4.5,7.7,11.3,11.6,20.4,11.6c7.2,0,12.9-2.8,17.1-8.5C59.6,87.1,61.8,78.6,61.8,67.3z M112.3,109.9c0,1.1-0.9,2-2,2h-11
	c-1.1,0-2-0.9-2-2V26.1c0-1.1,0.9-2,2-2h11c1.1,0,2,0.9,2,2V109.9z M165.4,91.6l21.3-66.1c0.3-0.8,1-1.4,1.9-1.4h11.1
	c1.4,0,2.4,1.4,1.9,2.7l-30.1,83.8c-0.3,0.8-1,1.3-1.9,1.3h-8.9c-0.7,0-1.4-0.4-1.6-1.1l0,0c-0.1-0.4-0.1-0.8,0-1.1L165.4,91.6z
	 M130.6,24.1c-1.4,0-2.4,1.4-1.9,2.7l22.7,62.5c0.6,1.8,3.2,1.7,3.8-0.1l4.5-13.8c0.1-0.4,0.1-0.8,0-1.3l-16.1-48.7
	c-0.3-0.8-1-1.4-1.9-1.4H130.6z M211.7,67.2c0-8.6,1.7-16.3,5-23.2c3.4-6.9,8.1-12.2,14.1-15.9c6.1-3.7,13-5.6,20.7-5.6
	c12,0,21.6,4.1,29,12.4c7.4,8.3,11.1,19.3,11.1,33V69c0,8.5-1.7,16.2-5,23.1c-3.2,6.8-7.9,12-14,15.8c-6.1,3.8-13,5.7-21,5.7
	c-11.9,0-21.6-4.1-29-12.4c-7.4-8.3-11-19.2-11-32.9V67.2z M226.8,69c0,9.7,2.2,17.6,6.7,23.5c4.5,5.9,10.6,8.8,18.2,8.8
	c7.6,0,13.7-3,18.2-8.9c4.5-6,6.7-14.4,6.7-25.2c0-9.6-2.3-17.4-6.9-23.4c-4.5-6-10.6-9-18.2-9c-7.4,0-13.4,2.9-17.9,8.8
	S226.8,58,226.8,69z M328.9,2.9c1.1,0,2,0.9,2,2v17.3c0,1.1,0.9,2,2,2h12.4c1.1,0,2,0.9,2,2v7.6c0,1.1-0.9,2-2,2h-12.4
	c-1.1,0-2,0.9-2,2v52.5c0,3.5,0.7,6.2,2.2,8c1.5,1.7,4,2.6,7.5,2.6c1.2,0,2.8-0.2,4.7-0.5c1.3-0.2,2.4,0.7,2.4,2v8.2
	c0,0.9-0.6,1.7-1.5,1.9c-3.4,0.8-6.8,1.2-10.1,1.2c-6.7,0-11.8-2-15.2-6.1c-3.4-4.1-5.1-9.8-5.1-17.3V37.7c0-1.1-0.9-2-2-2h-12
	c-1.1,0-2-0.9-2-2v-7.6c0-1.1,0.9-2,2-2h12c1.1,0,2-0.9,2-2V4.9c0-1.1,0.9-2,2-2H328.9z"/>
</svg>
