<svg width="200" height="85" viewBox="0 0 200 85" fill="none" xmlns="http://www.w3.org/2000/svg">
<path fill-rule="evenodd" clip-rule="evenodd" d="M44.2697 39.6704C44.2697 47.2815 42.5277 53.4135 39.0438 58.0665C35.5598 62.7194 30.8426 65.0459 24.8922 65.0459C20.5834 65.0459 16.9262 64.0767 13.9208 62.1381C12.6068 61.2906 10.5557 62.1401 10.5557 63.7036V81.6412C10.5557 82.5847 9.79083 83.3496 8.84734 83.3496H3.70833C2.76485 83.3496 2 82.5847 2 81.6412V15.8183C2 14.8748 2.76485 14.11 3.70833 14.11H8.32103C9.16403 14.11 9.86449 14.7599 9.92757 15.6005V15.6005C10.0368 17.056 11.9684 17.7013 13.1223 16.8076C16.2401 14.3929 20.1171 13.1856 24.7535 13.1856C30.7656 13.1856 35.5136 15.4504 38.9975 19.9801C42.5123 24.5098 44.2697 30.8113 44.2697 38.8846V39.6704ZM35.714 38.6997C35.714 33.0607 34.5116 28.6081 32.1067 25.3418C29.7019 22.0755 26.4029 20.4423 22.2099 20.4423C17.1783 20.4423 13.3687 22.6086 10.781 26.9411C10.6302 27.1935 10.5557 27.4838 10.5557 27.7779V50.7792C10.5557 51.072 10.6295 51.361 10.7793 51.6126C13.3404 55.9152 17.1815 58.0665 22.3024 58.0665C26.4029 58.0665 29.6556 56.4487 32.0605 53.2132C34.4961 49.9469 35.714 45.1091 35.714 38.6997ZM64.4795 62.4132C64.4795 63.3566 63.7147 64.1215 62.7712 64.1215H57.6322C56.6887 64.1215 55.9239 63.3566 55.9239 62.4131V15.8183C55.9239 14.8748 56.6887 14.11 57.6322 14.11H62.7712C63.7147 14.11 64.4795 14.8748 64.4795 15.8183V62.4132ZM94.725 52.5199L106.737 15.2937C106.965 14.5882 107.622 14.11 108.363 14.11H113.432C114.614 14.11 115.439 15.2823 115.04 16.3952L98.322 62.9901C98.0785 63.6688 97.4351 64.1215 96.714 64.1215H92.073C91.6662 64.1215 91.3029 63.8668 91.1642 63.4843V63.4843C91.0888 63.2761 91.0871 63.0484 91.1594 62.8392L94.725 52.5199ZM75.7028 14.11C74.518 14.11 73.693 15.2866 74.0967 16.4005L86.1584 49.6748C86.7118 51.2013 88.8825 51.1675 89.3879 49.6243L91.3902 43.5118C91.5039 43.1645 91.5033 42.7899 91.3884 42.443L82.395 15.2813C82.1634 14.5821 81.5098 14.11 80.7732 14.11H75.7028ZM121.086 38.6535C121.086 33.7541 122.041 29.3476 123.953 25.4342C125.895 21.5208 128.578 18.501 132 16.3748C135.453 14.2487 139.384 13.1856 143.793 13.1856C150.607 13.1856 156.11 15.5429 160.303 20.2574C164.527 24.972 166.639 31.2427 166.639 39.0695V39.6704C166.639 44.539 165.699 48.9147 163.818 52.7973C161.968 56.649 159.301 59.6534 155.817 61.8104C152.364 63.9674 148.387 65.0459 143.885 65.0459C137.103 65.0459 131.599 62.6886 127.375 57.974C123.182 53.2595 121.086 47.0196 121.086 39.2544V38.6535ZM129.688 39.6704C129.688 45.217 130.967 49.6696 133.526 53.0284C136.116 56.3871 139.569 58.0665 143.885 58.0665C148.233 58.0665 151.686 56.3717 154.245 52.9821C156.804 49.5618 158.083 44.7856 158.083 38.6535C158.083 33.1686 156.773 28.7313 154.152 25.3418C151.562 21.9214 148.109 20.2112 143.793 20.2112C139.569 20.2112 136.162 21.8906 133.572 25.2493C130.983 28.6081 129.688 33.4151 129.688 39.6704ZM187.268 2C188.211 2 188.976 2.76485 188.976 3.70833V12.4017C188.976 13.3451 189.741 14.11 190.684 14.11H196.61C197.553 14.11 198.318 14.8748 198.318 15.8183V19.0113C198.318 19.9548 197.553 20.7196 196.61 20.7196H190.684C189.741 20.7196 188.976 21.4845 188.976 22.428V51.7342C188.976 53.7371 189.392 55.247 190.225 56.2639C191.057 57.2499 192.476 57.7429 194.48 57.7429C195.029 57.7429 195.693 57.6856 196.471 57.571C197.547 57.4126 198.549 58.2137 198.549 59.3012V62.818C198.549 63.5878 198.036 64.2681 197.285 64.4368C195.477 64.8429 193.709 65.0459 191.982 65.0459C188.159 65.0459 185.276 63.8904 183.334 61.5793C181.392 59.2682 180.42 55.9865 180.42 51.7342V22.428C180.42 21.4845 179.656 20.7196 178.712 20.7196H173.018C172.075 20.7196 171.31 19.9548 171.31 19.0113V15.8183C171.31 14.8748 172.075 14.11 173.018 14.11H178.712C179.656 14.11 180.42 13.3451 180.42 12.4017V3.70833C180.42 2.76485 181.185 2 182.129 2H187.268Z" fill="#0449B0" stroke="#0449B0" stroke-width="2.27778"/>
</svg>
